<svg xmlns="http://www.w3.org/2000/svg" width="90" height="100.343" viewBox="0 0 90 100.343">
  <g id="_002-laptop" data-name="002-laptop" transform="translate(-26.388 0)">
    <path id="Path_1025" data-name="Path 1025" d="M85,233.134l-.711,1.929L38.624,261.782l-3.724.266,1.655-2.1,46.793-26.817Z" transform="translate(-6.844 -187.443)" fill="#424242"/>
    <path id="Path_1026" data-name="Path 1026" d="M123.229,256.227a1.791,1.791,0,0,0-.9-1.53L84.979,233.134,34.9,262.047a6.382,6.382,0,0,0,3.191,5.527l33.4,19.281a6.953,6.953,0,0,0,6.953,0l41.116-23.739a7.351,7.351,0,0,0,3.676-6.366v-.525Z" transform="translate(-6.844 -187.443)" fill="#e8edef"/>
    <path id="Path_1027" data-name="Path 1027" d="M122.326,352.727,78.44,378.065a6.954,6.954,0,0,1-6.953,0L34.9,356.941a6.382,6.382,0,0,0,3.191,5.527l33.4,19.281a6.953,6.953,0,0,0,6.953,0l41.116-23.739a7.352,7.352,0,0,0,3.676-6.366v-.485A1.8,1.8,0,0,1,122.326,352.727Z" transform="translate(-6.844 -282.338)" fill="#c8ced6"/>
    <path id="Path_1028" data-name="Path 1028" d="M485.6,350.957c0,.013,0,.025,0,.038v-.04Z" transform="translate(-369.213 -282.174)" fill="#d1d1d1"/>
    <path id="Path_1029" data-name="Path 1029" d="M85.525,279.869l4.526,2.644,30.085-17.383-4.49-2.571Z" transform="translate(-47.547 -211.102)" fill="#212938"/>
    <path id="Path_1030" data-name="Path 1030" d="M97.7,372.713l-6.246,3.625v.335l2.384,1.38,6.27-3.6v-.36Z" transform="translate(-52.313 -299.667)" fill="#284363"/>
    <path id="Path_1031" data-name="Path 1031" d="M93.85,383.388l-2.4-1.382v.335l2.384,1.38,6.27-3.6v-.36Z" transform="translate(-52.313 -305.336)" fill="#212938"/>
    <path id="Path_1032" data-name="Path 1032" d="M113.845,381.923l-6.246,3.625v.335l3.3,1.922,6.27-3.6v-.36Z" transform="translate(-65.295 -307.072)" fill="#284363"/>
    <path id="Path_1033" data-name="Path 1033" d="M110.919,395.365l-3.32-1.925v.335l3.3,1.922,6.27-3.6v-.36Z" transform="translate(-65.295 -314.965)" fill="#212938"/>
    <path id="Path_1034" data-name="Path 1034" d="M149.684,361.333l-6.247,3.624v.335l3.3,1.922,6.27-3.6v-.36Z" transform="translate(-94.109 -290.518)" fill="#284363"/>
    <path id="Path_1035" data-name="Path 1035" d="M146.757,374.774l-3.32-1.925v.335l3.3,1.922,6.27-3.6v-.36Z" transform="translate(-94.109 -298.41)" fill="#212938"/>
    <path id="Path_1036" data-name="Path 1036" d="M182.983,366.163l-6.246,3.625v.335l3.3,1.922,6.27-3.6v-.36Z" transform="translate(-120.883 -294.401)" fill="#284363"/>
    <path id="Path_1037" data-name="Path 1037" d="M180.057,379.6l-3.32-1.924v.335l3.3,1.922,6.27-3.6v-.36Z" transform="translate(-120.883 -302.293)" fill="#212938"/>
    <path id="Path_1038" data-name="Path 1038" d="M208.3,375.489l-6.246,3.625v.335l3.3,1.922,6.27-3.6v-.36Z" transform="translate(-141.241 -301.899)" fill="#284363"/>
    <path id="Path_1039" data-name="Path 1039" d="M205.377,388.931l-3.32-1.925v.335l3.3,1.922,6.27-3.6v-.36Z" transform="translate(-141.241 -309.792)" fill="#212938"/>
    <path id="Path_1040" data-name="Path 1040" d="M243.948,354.96l-6.247,3.625v.335l3.3,1.922,6.27-3.6v-.36Z" transform="translate(-169.899 -285.394)" fill="#284363"/>
    <path id="Path_1041" data-name="Path 1041" d="M241.021,368.4l-3.32-1.925v.335l3.3,1.922,6.27-3.6v-.36Z" transform="translate(-169.899 -293.287)" fill="#212938"/>
    <path id="Path_1042" data-name="Path 1042" d="M280.335,334.1l-6.246,3.625v.335l3.3,1.922,6.27-3.6v-.36Z" transform="translate(-199.156 -268.623)" fill="#284363"/>
    <path id="Path_1043" data-name="Path 1043" d="M277.409,347.544l-3.32-1.925v.335l3.3,1.922,6.27-3.6v-.36Z" transform="translate(-199.156 -276.516)" fill="#212938"/>
    <path id="Path_1044" data-name="Path 1044" d="M218.8,345.481l-6.246,3.624v.335l3.3,1.922,6.27-3.6v-.36Z" transform="translate(-149.682 -277.772)" fill="#284363"/>
    <path id="Path_1045" data-name="Path 1045" d="M215.876,358.922,212.556,357v.335l3.3,1.922,6.27-3.6v-.36Z" transform="translate(-149.682 -285.665)" fill="#212938"/>
    <path id="Path_1046" data-name="Path 1046" d="M254.871,324.526l-6.246,3.625v.335l3.3,1.922,6.27-3.6v-.36Z" transform="translate(-178.682 -260.924)" fill="#284363"/>
    <path id="Path_1047" data-name="Path 1047" d="M251.945,337.968l-3.32-1.925v.335l3.3,1.922,6.27-3.6v-.36Z" transform="translate(-178.682 -268.817)" fill="#212938"/>
    <path id="Path_1048" data-name="Path 1048" d="M291.012,304.045l-6.246,3.625V308l3.3,1.922,6.27-3.6v-.36Z" transform="translate(-207.74 -244.457)" fill="#284363"/>
    <path id="Path_1049" data-name="Path 1049" d="M288.086,317.486l-3.32-1.924v.335l3.3,1.922,6.27-3.6v-.36Z" transform="translate(-207.74 -252.349)" fill="#212938"/>
    <path id="Path_1050" data-name="Path 1050" d="M185.388,340.8l-6.246,3.625v.335l3.3,1.922,6.27-3.6v-.36Z" transform="translate(-122.817 -274.011)" fill="#284363"/>
    <path id="Path_1051" data-name="Path 1051" d="M182.462,354.245l-3.32-1.925v.335l3.3,1.922,6.27-3.6v-.36Z" transform="translate(-122.817 -281.904)" fill="#212938"/>
    <path id="Path_1052" data-name="Path 1052" d="M221.321,319.946l-6.246,3.624v.335l3.3,1.922,6.27-3.6v-.36Z" transform="translate(-151.708 -257.242)" fill="#284363"/>
    <path id="Path_1053" data-name="Path 1053" d="M218.395,333.387l-3.32-1.925v.335l3.3,1.922,6.27-3.6v-.36Z" transform="translate(-151.708 -265.134)" fill="#212938"/>
    <path id="Path_1054" data-name="Path 1054" d="M257.281,299.136l-6.246,3.625v.335l3.3,1.922,6.27-3.6v-.36Z" transform="translate(-180.62 -240.51)" fill="#284363"/>
    <path id="Path_1055" data-name="Path 1055" d="M254.355,312.578l-3.32-1.925v.335l3.3,1.922,6.27-3.6v-.36Z" transform="translate(-180.62 -248.403)" fill="#212938"/>
    <path id="Path_1056" data-name="Path 1056" d="M293.171,278.49l-6.246,3.625v.335l3.3,1.922,6.27-3.6v-.36Z" transform="translate(-209.476 -223.91)" fill="#284363"/>
    <path id="Path_1057" data-name="Path 1057" d="M290.245,291.932l-3.32-1.925v.335l3.3,1.922,6.27-3.6v-.36Z" transform="translate(-209.476 -231.803)" fill="#212938"/>
    <path id="Path_1058" data-name="Path 1058" d="M140.353,388.756l-3.328-1.924-8.7,5.03v.335l3.3,1.922,8.722-5v-.36Z" transform="translate(-81.96 -311.019)" fill="#284363"/>
    <path id="Path_1059" data-name="Path 1059" d="M128.326,399.77v.335l3.3,1.922,8.722-5v-.36l-8.708,5.026Z" transform="translate(-81.96 -318.928)" fill="#212938"/>
    <path id="Path_1060" data-name="Path 1060" d="M162.193,398.377l-3.321-1.92L149.3,402v.335l3.3,1.922,9.6-5.522v-.36Z" transform="translate(-98.821 -318.758)" fill="#284363"/>
    <path id="Path_1061" data-name="Path 1061" d="M149.3,409.892v.335l3.3,1.922,9.6-5.522v-.352l-9.583,5.542Z" transform="translate(-98.821 -326.651)" fill="#212938"/>
    <path id="Path_1062" data-name="Path 1062" d="M215.1,406.238l.007,0v-.008Z" transform="translate(-151.725 -326.619)" fill="#292929"/>
    <path id="Path_1063" data-name="Path 1063" d="M176.353,418.128l-6.246,3.625v.335l3.3,1.922,6.27-3.6v-.36Z" transform="translate(-115.552 -336.182)" fill="#284363"/>
    <path id="Path_1064" data-name="Path 1064" d="M173.427,431.57l-3.32-1.925v.335l3.3,1.922,6.27-3.6v-.36Z" transform="translate(-115.552 -344.075)" fill="#212938"/>
    <path id="Path_1065" data-name="Path 1065" d="M212.2,397.425l-6.246,3.624v.335l3.3,1.922,6.27-3.6v-.36Z" transform="translate(-144.376 -319.536)" fill="#284363"/>
    <path id="Path_1066" data-name="Path 1066" d="M209.276,410.866l-3.32-1.925v.335l3.3,1.922,6.27-3.6v-.36Z" transform="translate(-144.376 -327.428)" fill="#212938"/>
    <path id="Path_1067" data-name="Path 1067" d="M261.976,335.191,241.7,346.956v.335l3.3,1.922,20.3-11.738v-.36Z" transform="translate(-173.114 -269.499)" fill="#284363"/>
    <path id="Path_1068" data-name="Path 1068" d="M245.02,356.774l-3.32-1.925v.335l3.3,1.922,20.3-11.738v-.36Z" transform="translate(-173.114 -277.392)" fill="#212938"/>
    <path id="Path_1069" data-name="Path 1069" d="M355.6,314.653l-6.247,3.624v.335l3.3,1.922,6.269-3.6v-.36Z" transform="translate(-259.666 -252.986)" fill="#284363"/>
    <path id="Path_1070" data-name="Path 1070" d="M352.669,328.094l-3.32-1.925v.335l3.3,1.922,6.269-3.6v-.36Z" transform="translate(-259.666 -260.878)" fill="#212938"/>
    <path id="Path_1071" data-name="Path 1071" d="M133.4,352.066l-6.247,3.625v.335l2.384,1.38,6.27-3.6v-.36Z" transform="translate(-81.02 -283.067)" fill="#284363"/>
    <path id="Path_1072" data-name="Path 1072" d="M129.555,362.741l-2.4-1.382v.335l2.384,1.38,6.27-3.6v-.36Z" transform="translate(-81.02 -288.735)" fill="#212938"/>
    <path id="Path_1073" data-name="Path 1073" d="M169.45,331.278,163.2,334.9v.335l2.384,1.38,6.27-3.6v-.36Z" transform="translate(-110.002 -266.353)" fill="#284363"/>
    <path id="Path_1074" data-name="Path 1074" d="M165.6,341.953l-2.4-1.382v.335l2.384,1.38,6.27-3.6v-.36Z" transform="translate(-110.002 -272.021)" fill="#212938"/>
    <path id="Path_1075" data-name="Path 1075" d="M205.383,310.489l-6.246,3.625v.335l2.384,1.38,6.27-3.6v-.36Z" transform="translate(-138.893 -249.638)" fill="#284363"/>
    <path id="Path_1076" data-name="Path 1076" d="M201.535,321.164l-2.4-1.382v.335l2.384,1.38,6.27-3.6v-.36Z" transform="translate(-138.893 -255.306)" fill="#212938"/>
    <path id="Path_1077" data-name="Path 1077" d="M241.031,289.816l-6.246,3.625v.335l2.384,1.38,6.27-3.6v-.36Z" transform="translate(-167.555 -233.017)" fill="#284363"/>
    <path id="Path_1078" data-name="Path 1078" d="M237.183,300.491l-2.4-1.382v.335l2.384,1.38,6.27-3.6v-.36Z" transform="translate(-167.555 -238.685)" fill="#212938"/>
    <path id="Path_1079" data-name="Path 1079" d="M276.947,269.185,270.7,272.81v.335l2.384,1.38,6.27-3.6v-.36Z" transform="translate(-196.432 -216.429)" fill="#284363"/>
    <path id="Path_1080" data-name="Path 1080" d="M273.1,279.86l-2.4-1.382v.335l2.384,1.38,6.27-3.6v-.36Z" transform="translate(-196.432 -222.097)" fill="#212938"/>
    <path id="Path_1081" data-name="Path 1081" d="M322.941,294.783l-7.4-4.3-3.813,2.237v.335l3.73,2.2-5.8,3.356,0,.005v.335l3.3,1.922,9.973-5.723v-.36Z" transform="translate(-227.755 -233.551)" fill="#284363"/>
    <path id="Path_1082" data-name="Path 1082" d="M261.409,374.794l18.1-10.42,8.246,4.725-18.1,10.474Z" transform="translate(-188.961 -292.963)" fill="#c8ced6"/>
    <g id="Group_9045" data-name="Group 9045" transform="translate(81.909 59.166)">
      <path id="Path_1083" data-name="Path 1083" d="M324.278,304.256l-4.034-2.363v.335l3.73,2.2Z" transform="translate(-318.174 -301.893)" fill="#212938"/>
      <path id="Path_1084" data-name="Path 1084" d="M313.021,318.231l-.017-.01h0l-3.32-1.925v.335l3.3,1.922,9.973-5.723v-.36l-2.627,1.517Z" transform="translate(-309.683 -310.398)" fill="#212938"/>
    </g>
    <path id="Path_1085" data-name="Path 1085" d="M77.192.955h0L76.32.447a3.322,3.322,0,0,0-3.325,0L29.9,25.33a7.032,7.032,0,0,0-3.516,6.09v40.3a3.32,3.32,0,0,0,1.668,2.88l50.1-28.913V2.556A1.8,1.8,0,0,0,77.192.955Z" transform="translate(0 0)" fill="#284363"/>
    <path id="Path_1086" data-name="Path 1086" d="M28.056,32.352a6.951,6.951,0,0,1,3.476-6.02l.04-.023h0L75.44.985a1.792,1.792,0,0,1,1.752-.03h0L76.32.447a3.322,3.322,0,0,0-3.325,0L29.9,25.33a7.032,7.032,0,0,0-3.516,6.09v40.3a3.32,3.32,0,0,0,1.668,2.88V32.352Z" transform="translate(0 0)" fill="#212938"/>
    <path id="Path_1087" data-name="Path 1087" d="M43.347,43.539V84.027L90.14,57.034V16.523Z" transform="translate(-13.635 -13.285)" fill="#33aeff"/>
    <g id="Group_9046" data-name="Group 9046" transform="translate(50.148 3.238)" opacity="0.2">
      <path id="Path_1088" data-name="Path 1088" d="M147.622,72.238l23.073-13.31,3.284-9.144V16.523l-8.007,4.622Z" transform="translate(-147.622 -16.523)" fill="#fff"/>
    </g>
    <g id="Group_9047" data-name="Group 9047" transform="translate(29.712 13.487)" opacity="0.2">
      <path id="Path_1089" data-name="Path 1089" d="M72.389,68.816,52.195,80.475,43.347,105.11v20.962L54.041,119.9Z" transform="translate(-43.347 -68.816)" fill="#fff"/>
    </g>
    <path id="Path_1090" data-name="Path 1090" d="M98.227,29.423l-7.866-14.56L43.347,42.2v9.951l7.873,4.582v4.683a3.631,3.631,0,0,0,5.45,3.143h0a7.964,7.964,0,0,0,3.976-6.893V51.26l9.436-5.479v4.68a3.631,3.631,0,0,0,5.45,3.143,7.964,7.964,0,0,0,3.976-6.893v-6.4l9.441-5.481V39.5a3.631,3.631,0,0,0,5.45,3.143,7.693,7.693,0,0,0,3.836-6.8V29.418Z" transform="translate(-13.635 -11.95)" fill="#f43834"/>
    <g id="Group_9048" data-name="Group 9048" transform="translate(38.998 8.396)">
      <path id="Path_1091" data-name="Path 1091" d="M108.173,113.2l-8.018-14.471-9.425,5.485,8.028,14.466v4.683a3.631,3.631,0,0,0,5.45,3.143,7.964,7.964,0,0,0,3.976-6.893V113.2Z" transform="translate(-90.729 -87.777)" fill="#e3e3e3"/>
      <path id="Path_1092" data-name="Path 1092" d="M196.414,42.839l-9.421,5.471,8.023,14.479v4.683a3.631,3.631,0,0,0,5.45,3.143,7.964,7.964,0,0,0,3.976-6.893V57.3Z" transform="translate(-168.127 -42.839)" fill="#e3e3e3"/>
    </g>
    <path id="Path_1093" data-name="Path 1093" d="M83.519,206v4.683a3.631,3.631,0,0,0,5.45,3.143h0a7.964,7.964,0,0,0,3.976-6.893v-6.417Z" transform="translate(-45.934 -161.22)" fill="#c40041"/>
    <path id="Path_1094" data-name="Path 1094" d="M131.691,178.027v4.683a3.631,3.631,0,0,0,5.45,3.143h0a7.964,7.964,0,0,0,3.976-6.893v-6.417Z" transform="translate(-84.665 -138.726)" fill="#c8ced6"/>
    <g id="Group_9049" data-name="Group 9049" transform="translate(56.446 17.468)">
      <path id="Path_1095" data-name="Path 1095" d="M179.759,150.112v4.683a3.631,3.631,0,0,0,5.45,3.143h0a7.964,7.964,0,0,0,3.976-6.893v-6.417Z" transform="translate(-179.759 -133.751)" fill="#c40041"/>
      <path id="Path_1096" data-name="Path 1096" d="M276.024,94.526v4.683a3.631,3.631,0,0,0,5.45,3.143h0a7.693,7.693,0,0,0,3.836-6.8V89.131Z" transform="translate(-257.158 -89.131)" fill="#c40041"/>
    </g>
    <path id="Path_1097" data-name="Path 1097" d="M227.931,122.136v4.683a3.631,3.631,0,0,0,5.45,3.143h0a7.964,7.964,0,0,0,3.976-6.893v-6.417Z" transform="translate(-162.044 -93.789)" fill="#c8ced6"/>
    <path id="Path_1098" data-name="Path 1098" d="M51.22,168.881,43.347,164.3v-9.951Z" transform="translate(-13.635 -124.097)" fill="#c40041"/>
  </g>
</svg>
