<svg xmlns="http://www.w3.org/2000/svg" width="90" height="95.676" viewBox="0 0 90 95.676">
  <g id="_003-process" data-name="003-process" transform="translate(-13.045 -0.001)">
    <path id="Path_1099" data-name="Path 1099" d="M103.045,71.109A45,45,0,1,1,54.882,26.2c.689-.047,1.389-.07,2.089-.093.35-.012.712-.012,1.074-.012a3.384,3.384,0,1,1,0,6.757c-.362,0-.712,0-1.074.012-.7.023-1.4.058-2.089.128A38.25,38.25,0,1,0,96.3,71.11a3.373,3.373,0,0,1,6.745,0Z" transform="translate(0 -20.414)" fill="#f6b863"/>
    <path id="Path_1100" data-name="Path 1100" d="M228.505,9.418l-12.884,8.624a.435.435,0,0,1-.688-.35V.432a.435.435,0,0,1,.689-.35l12.884,8.624a.436.436,0,0,1,.1.609.45.45,0,0,1-.1.1Z" transform="translate(-157.962 0)" fill="#f6b863"/>
    <path id="Path_1101" data-name="Path 1101" d="M151.458,304.447a26.988,26.988,0,0,1-2.929.152,28.987,28.987,0,0,1-19.839-7.831l10.456-9.359a15.025,15.025,0,0,0,9.382,3.285,2.144,2.144,0,0,0,.28-.012Z" transform="translate(-90.483 -224.874)" fill="#dbd8dd"/>
    <path id="Path_1102" data-name="Path 1102" d="M100.295,165.936a14.909,14.909,0,0,0,2.311,8.017L92.149,183.3a28.981,28.981,0,0,1,1-35.991l9.9,9.92A15.054,15.054,0,0,0,100.295,165.936Z" transform="translate(-57.373 -115.258)" fill="#2cbfae"/>
    <path id="Path_1103" data-name="Path 1103" d="M150.315,100.057v14a14.936,14.936,0,0,0-6.139,2.544l-9.908-9.908a28.682,28.682,0,0,1,16.046-6.64Z" transform="translate(-94.848 -78.286)" fill="#69b0ee"/>
    <path id="Path_1104" data-name="Path 1104" d="M258.195,128.963a29.045,29.045,0,0,1-21.041,27.927L234.5,143.119a15.132,15.132,0,0,0-2.777-29.059v-14A29.028,29.028,0,0,1,258.195,128.963Z" transform="translate(-171.102 -78.285)" fill="#ef5261"/>
    <path id="Path_1105" data-name="Path 1105" d="M207.42,26.173V32.93c-.7.023-1.4.058-2.089.128V26.266C206.02,26.22,206.72,26.2,207.42,26.173Z" transform="translate(-150.449 -20.478)" fill="#eaa14e"/>
  </g>
</svg>
