<svg id="_004-categories" data-name="004-categories" xmlns="http://www.w3.org/2000/svg" width="90" height="90" viewBox="0 0 90 90">
  <g id="Group_9050" data-name="Group 9050" transform="translate(2.903 8.71)">
    <path id="Path_1106" data-name="Path 1106" d="M249.194,318.064a1.451,1.451,0,0,1-1.452-1.452V290.484a1.452,1.452,0,0,1,2.9,0v26.128A1.451,1.451,0,0,1,249.194,318.064Z" transform="translate(-207.097 -246.935)" fill="#faf5dc"/>
    <path id="Path_1107" data-name="Path 1107" d="M289.472,269.971a1.438,1.438,0,0,1-.627-.143l-40.282-19.335a1.451,1.451,0,1,1,1.256-2.617L290.1,267.211a1.451,1.451,0,0,1-.629,2.76Z" transform="translate(-207.095 -212.894)" fill="#faf5dc"/>
    <path id="Path_1108" data-name="Path 1108" d="M85.839,87.291a1.447,1.447,0,0,1-1.026-.425L49.974,52.027a1.451,1.451,0,0,1,2.053-2.053L86.865,84.813a1.452,1.452,0,0,1-1.026,2.478Z" transform="translate(-43.742 -49.549)" fill="#faf5dc"/>
    <path id="Path_1109" data-name="Path 1109" d="M17.967,161.968a1.452,1.452,0,0,1-1.026-2.478L85.167,91.264a1.451,1.451,0,0,1,2.053,2.053L18.994,161.542a1.448,1.448,0,0,1-1.026.425Z" transform="translate(-16.515 -83.581)" fill="#faf5dc"/>
  </g>
  <path id="Path_1110" data-name="Path 1110" d="M383.25,71.871c0,3.207,2.006,5.168,5.212,5.168,2.167,0,4.057-.549,5.054-2.309a5.808,5.808,0,0,0-7.917-7.913C383.842,67.816,383.25,69.705,383.25,71.871Z" transform="translate(-315.882 -54.452)" fill="#ffe07d"/>
  <path id="Path_1111" data-name="Path 1111" d="M186.667,194.742c0,7.215,4.8,11.836,12.012,11.836,4.537,0,8.71-1.084,11.052-4.6a13.066,13.066,0,0,0-18.12-18.114C188.1,186.21,186.667,190.206,186.667,194.742Z" transform="translate(-153.854 -149.742)" fill="#a4ccff"/>
  <path id="Path_1112" data-name="Path 1112" d="M198.371,214.448a13.066,13.066,0,0,1-10.873-20.31,13.066,13.066,0,1,0,18.12,18.115A13.017,13.017,0,0,1,198.371,214.448Z" transform="translate(-149.742 -160.012)" fill="#8bb3ea"/>
  <path id="Path_1113" data-name="Path 1113" d="M8,10.161c0,5.612,3.143,8.933,8.755,8.933,3.527,0,6.634-.568,8.456-3.3A10.163,10.163,0,0,0,11.118,1.705C8.39,3.527,8,6.635,8,10.161Z" transform="translate(-6.594)" fill="#ead1ff"/>
  <path id="Path_1114" data-name="Path 1114" d="M12.984,25.5A10.164,10.164,0,0,1,4.525,9.7,10.162,10.162,0,1,0,18.617,23.794,10.108,10.108,0,0,1,12.984,25.5Z" transform="translate(0 -7.997)" fill="#d6bdef"/>
  <path id="Path_1115" data-name="Path 1115" d="M417.25,314.259c0,4.81,3.135,8.025,7.946,8.025,3.024,0,5.688-.856,7.249-3.2a8.711,8.711,0,0,0-12.079-12.079C418.027,308.571,417.25,311.235,417.25,314.259Z" transform="translate(-343.905 -251.839)" fill="#ccf49f"/>
  <path id="Path_1116" data-name="Path 1116" d="M424.032,327.4a8.711,8.711,0,0,1-7.249-13.54,8.71,8.71,0,1,0,12.078,12.078A8.67,8.67,0,0,1,424.032,327.4Z" transform="translate(-340.322 -258.687)" fill="#b3e59f"/>
  <path id="Path_1117" data-name="Path 1117" d="M387.854,79.032a5.8,5.8,0,0,1-5.039-8.682,5.807,5.807,0,1,0,7.916,7.913A5.833,5.833,0,0,1,387.854,79.032Z" transform="translate(-313.096 -57.984)" fill="#ffd064"/>
  <path id="Path_1118" data-name="Path 1118" d="M1.875,466.807c0,2.405,1.62,3.805,4.025,3.805,1.625,0,3.042-.34,3.79-1.659a4.356,4.356,0,0,0-5.942-5.933A4.088,4.088,0,0,0,1.875,466.807Z" transform="translate(-1.545 -381.162)" fill="#ffe07d"/>
  <path id="Path_1119" data-name="Path 1119" d="M5.988,472.192A4.355,4.355,0,0,1,2.2,465.684a4.355,4.355,0,1,0,5.942,5.933A4.372,4.372,0,0,1,5.988,472.192Z" transform="translate(0 -383.825)" fill="#ffd064"/>
  <path id="Path_1120" data-name="Path 1120" d="M228.667,418.71c0,3.207,1.6,5.109,4.8,5.109,2.165,0,4.053-.487,5.052-2.244a5.808,5.808,0,0,0-7.914-7.918C228.851,414.655,228.667,416.544,228.667,418.71Z" transform="translate(-188.472 -340.323)" fill="#eceaec"/>
  <path id="Path_1121" data-name="Path 1121" d="M230.952,425.871a5.8,5.8,0,0,1-5.039-8.682,5.807,5.807,0,1,0,7.914,7.918A5.821,5.821,0,0,1,230.952,425.871Z" transform="translate(-183.774 -343.855)" fill="#dad8db"/>
  <path id="Path_1122" data-name="Path 1122" d="M151.124,175.462a1.469,1.469,0,0,1-.2-.014l-.323-.049a22.011,22.011,0,0,1-2.5-.54,1.452,1.452,0,0,1,.78-2.8,19.257,19.257,0,0,0,2.168.47l.268.04a1.452,1.452,0,0,1-.2,2.89Zm5.784-.006a1.452,1.452,0,0,1-.207-2.888,18.759,18.759,0,0,0,2.437-.522,1.452,1.452,0,1,1,.794,2.793,21.844,21.844,0,0,1-2.814.6A1.493,1.493,0,0,1,156.908,175.457ZM143.2,172.579a1.444,1.444,0,0,1-.77-.222,22.005,22.005,0,0,1-2.328-1.68,1.452,1.452,0,1,1,1.851-2.237,19.061,19.061,0,0,0,2.019,1.458,1.452,1.452,0,0,1-.773,2.681Zm21.617-.047a1.451,1.451,0,0,1-.775-2.679,19.251,19.251,0,0,0,2.014-1.466,1.451,1.451,0,1,1,1.857,2.231,22.074,22.074,0,0,1-2.322,1.69A1.446,1.446,0,0,1,164.818,172.532Zm-27.677-5.806a1.451,1.451,0,0,1-1.2-.639,22.167,22.167,0,0,1-1.449-2.479,1.452,1.452,0,0,1,2.6-1.3,18.941,18.941,0,0,0,1.259,2.153,1.453,1.453,0,0,1-1.2,2.265Zm33.719-.065a1.452,1.452,0,0,1-1.2-2.261,18.961,18.961,0,0,0,1.249-2.156,1.452,1.452,0,0,1,2.6,1.287,21.968,21.968,0,0,1-1.442,2.488A1.451,1.451,0,0,1,170.86,166.661Zm-36.9-7.744a1.451,1.451,0,0,1-1.428-1.2,21.906,21.906,0,0,1-.316-2.859,1.452,1.452,0,0,1,2.9-.128,19.042,19.042,0,0,0,.274,2.477,1.452,1.452,0,0,1-1.174,1.684A1.467,1.467,0,0,1,133.963,158.917ZM174,158.838a1.451,1.451,0,0,1-1.432-1.7l.055-.332a19.34,19.34,0,0,0,.225-2.483,1.412,1.412,0,0,1,1.488-1.413,1.452,1.452,0,0,1,1.415,1.489,22.2,22.2,0,0,1-.261,2.86l-.062.369A1.451,1.451,0,0,1,174,158.838Zm-39.756-8.348a1.452,1.452,0,0,1-1.412-1.8,22.248,22.248,0,0,1,.866-2.739,1.452,1.452,0,0,1,2.7,1.055,18.784,18.784,0,0,0-.75,2.376A1.454,1.454,0,0,1,134.241,150.49Zm39.369-.417a1.453,1.453,0,0,1-1.4-1.075,19.158,19.158,0,0,0-.805-2.362,1.452,1.452,0,0,1,2.682-1.113,22.09,22.09,0,0,1,.927,2.719,1.453,1.453,0,0,1-1.4,1.83ZM137.9,142.9a1.452,1.452,0,0,1-1.147-2.34,21.671,21.671,0,0,1,1.907-2.151,1.452,1.452,0,1,1,2.041,2.065,18.582,18.582,0,0,0-1.651,1.862A1.45,1.45,0,0,1,137.9,142.9Zm31.88-.338a1.45,1.45,0,0,1-1.131-.54,19.05,19.05,0,0,0-1.69-1.831,1.452,1.452,0,0,1,2-2.1,22.171,22.171,0,0,1,1.948,2.111,1.451,1.451,0,0,1-1.129,2.363Zm-25.447-5.11a1.452,1.452,0,0,1-.692-2.729,21.818,21.818,0,0,1,2.614-1.2,1.451,1.451,0,1,1,1.032,2.713,18.872,18.872,0,0,0-2.265,1.038A1.449,1.449,0,0,1,144.334,137.452Zm18.9-.206a1.439,1.439,0,0,1-.659-.159,18.677,18.677,0,0,0-2.287-.982,1.452,1.452,0,1,1,.964-2.739A21.49,21.49,0,0,1,163.9,134.5a1.451,1.451,0,0,1-.662,2.744Zm-10.819-2.172a1.452,1.452,0,0,1-.108-2.9,21.7,21.7,0,0,1,2.875-.028,1.452,1.452,0,0,1-.165,2.9,18.833,18.833,0,0,0-2.492.023c-.037,0-.074,0-.111,0Z" transform="translate(-108.976 -108.889)" fill="#c3ddff"/>
</svg>
