<svg xmlns="http://www.w3.org/2000/svg" width="90" height="66" viewBox="0 0 90 66">
  <g id="_009-discount-voucher" data-name="009-discount-voucher" transform="translate(-16 -80)">
    <g id="Group_9055" data-name="Group 9055" transform="translate(16 80)">
      <path id="Path_1160" data-name="Path 1160" d="M103,102.5v-3a1.5,1.5,0,0,1,1.5-1.5,1.5,1.5,0,0,0,1.5-1.5v-3a1.5,1.5,0,0,0-1.5-1.5,1.5,1.5,0,0,1-1.5-1.5v-3a1.5,1.5,0,0,1,1.5-1.5,1.5,1.5,0,0,0,1.5-1.5v-3a1.5,1.5,0,0,0-1.5-1.5H38.606a3,3,0,0,0-2.5,1.336L35,83H33L31.89,81.336A3,3,0,0,0,29.394,80H17.5A1.5,1.5,0,0,0,16,81.5v3A1.5,1.5,0,0,0,17.5,86,1.5,1.5,0,0,1,19,87.5v3A1.5,1.5,0,0,1,17.5,92,1.5,1.5,0,0,0,16,93.5v3A1.5,1.5,0,0,0,17.5,98,1.5,1.5,0,0,1,19,99.5v3a1.5,1.5,0,0,1-1.5,1.5,1.5,1.5,0,0,0-1.5,1.5v3a1.5,1.5,0,0,0,1.5,1.5H29.394a3,3,0,0,0,2.5-1.336L33,107h2l1.109,1.664a3,3,0,0,0,2.5,1.336H104.5a1.5,1.5,0,0,0,1.5-1.5v-3a1.5,1.5,0,0,0-1.5-1.5A1.5,1.5,0,0,1,103,102.5Z" transform="translate(-16 -80)" fill="#ff6e91"/>
    </g>
    <g id="Group_9062" data-name="Group 9062" transform="translate(39.437 87.875)">
      <g id="Group_9056" data-name="Group 9056" transform="translate(0 0)">
        <path id="Path_1161" data-name="Path 1161" d="M145.125,136.25A4.13,4.13,0,0,1,141,132.125v-6a4.125,4.125,0,0,1,8.25,0,1.125,1.125,0,0,1-2.25,0,1.875,1.875,0,0,0-3.75,0v6a1.875,1.875,0,0,0,3.75,0,1.125,1.125,0,0,1,2.25,0A4.13,4.13,0,0,1,145.125,136.25Z" transform="translate(-141 -122)" fill="#d7e6f0"/>
      </g>
      <g id="Group_9057" data-name="Group 9057" transform="translate(10 0)">
        <path id="Path_1162" data-name="Path 1162" d="M198.458,136.25a4.13,4.13,0,0,1-4.125-4.125v-6a4.125,4.125,0,1,1,8.25,0v6A4.13,4.13,0,0,1,198.458,136.25Zm0-12a1.877,1.877,0,0,0-1.875,1.875v6a1.875,1.875,0,0,0,3.75,0v-6A1.877,1.877,0,0,0,198.458,124.25Z" transform="translate(-194.333 -122)" fill="#d7e6f0"/>
      </g>
      <g id="Group_9058" data-name="Group 9058" transform="translate(40.5 0)">
        <path id="Path_1163" data-name="Path 1163" d="M361.125,136.25A4.13,4.13,0,0,1,357,132.125v-6a4.125,4.125,0,0,1,8.25,0v6A4.13,4.13,0,0,1,361.125,136.25Zm0-12a1.877,1.877,0,0,0-1.875,1.875v6a1.875,1.875,0,0,0,3.75,0v-6A1.877,1.877,0,0,0,361.125,124.25Z" transform="translate(-357 -122)" fill="#d7e6f0"/>
      </g>
      <g id="Group_9059" data-name="Group 9059" transform="translate(20.5 0)">
        <path id="Path_1164" data-name="Path 1164" d="M254.458,136.25a4.13,4.13,0,0,1-4.125-4.125v-9a1.125,1.125,0,0,1,2.25,0v9a1.875,1.875,0,0,0,3.75,0v-9a1.125,1.125,0,0,1,2.25,0v9A4.13,4.13,0,0,1,254.458,136.25Z" transform="translate(-250.333 -122)" fill="#d7e6f0"/>
      </g>
      <g id="Group_9060" data-name="Group 9060" transform="translate(31 0)">
        <path id="Path_1165" data-name="Path 1165" d="M307.458,136.25a1.125,1.125,0,0,1-1.125-1.125v-12A1.125,1.125,0,0,1,307.458,122h3a4.125,4.125,0,0,1,0,8.25h-1.875v4.875A1.125,1.125,0,0,1,307.458,136.25Zm1.125-8.25h1.875a1.875,1.875,0,0,0,0-3.75h-1.875Z" transform="translate(-306.333 -122)" fill="#d7e6f0"/>
      </g>
      <g id="Group_9061" data-name="Group 9061" transform="translate(51 0)">
        <path id="Path_1166" data-name="Path 1166" d="M420.125,136.249a1.125,1.125,0,0,1-1.006-.622l-3.869-7.737v7.234a1.125,1.125,0,0,1-2.25,0v-12a1.125,1.125,0,0,1,2.131-.5L419,130.358v-7.234a1.125,1.125,0,0,1,2.25,0v12a1.124,1.124,0,0,1-1.125,1.125Z" transform="translate(-413 -121.999)" fill="#d7e6f0"/>
      </g>
    </g>
    <path id="Path_1167" data-name="Path 1167" d="M57.125,120.75a1.125,1.125,0,0,0,1.125-1.125v-.219a3.91,3.91,0,0,0-3-3.8v-.485a1.125,1.125,0,1,0-2.25,0v.485a3.9,3.9,0,0,0-.841,7.289l2.926,1.463a1.656,1.656,0,0,1-.741,3.137h-.438a1.658,1.658,0,0,1-1.656-1.656v-.219a1.125,1.125,0,1,0-2.25,0v.219a3.91,3.91,0,0,0,3,3.8v.485a1.125,1.125,0,0,0,2.25,0v-.485a3.9,3.9,0,0,0,.841-7.289l-2.926-1.463a1.656,1.656,0,0,1,.741-3.137h.438A1.658,1.658,0,0,1,56,119.406v.219a1.125,1.125,0,0,0,1.125,1.125Z" transform="translate(-27.625 -27.625)" fill="#00d2d2"/>
    <g id="Group_9063" data-name="Group 9063" transform="translate(33 83)">
      <path id="Path_1168" data-name="Path 1168" d="M107.667,97.5a1,1,0,0,1-1-1V96h2v.5A1,1,0,0,1,107.667,97.5Z" transform="translate(-106.667 -96)" fill="#e64178"/>
    </g>
    <g id="Group_9064" data-name="Group 9064" transform="translate(33 105.5)">
      <path id="Path_1169" data-name="Path 1169" d="M108.666,217.5h-2V217a1,1,0,1,1,2,0v.5Z" transform="translate(-106.666 -216)" fill="#e64178"/>
    </g>
    <g id="Group_9065" data-name="Group 9065" transform="translate(33 99.5)">
      <path id="Path_1170" data-name="Path 1170" d="M107.667,187a1,1,0,0,1-1-1v-1a1,1,0,1,1,2,0v1A1,1,0,0,1,107.667,187Z" transform="translate(-106.667 -184.001)" fill="#e64178"/>
    </g>
    <g id="Group_9066" data-name="Group 9066" transform="translate(33 87.5)">
      <path id="Path_1171" data-name="Path 1171" d="M107.667,123a1,1,0,0,1-1-1v-1a1,1,0,1,1,2,0v1A1,1,0,0,1,107.667,123Z" transform="translate(-106.667 -120.001)" fill="#e64178"/>
    </g>
    <g id="Group_9067" data-name="Group 9067" transform="translate(33 93.5)">
      <path id="Path_1172" data-name="Path 1172" d="M107.667,155a1,1,0,0,1-1-1v-1a1,1,0,1,1,2,0v1A1,1,0,0,1,107.667,155Z" transform="translate(-106.667 -152.001)" fill="#e64178"/>
    </g>
    <g id="Group_9068" data-name="Group 9068" transform="translate(16 116)">
      <path id="Path_1173" data-name="Path 1173" d="M103,294.5v-3a1.5,1.5,0,0,1,1.5-1.5,1.5,1.5,0,0,0,1.5-1.5v-3a1.5,1.5,0,0,0-1.5-1.5,1.5,1.5,0,0,1-1.5-1.5v-3a1.5,1.5,0,0,1,1.5-1.5,1.5,1.5,0,0,0,1.5-1.5v-3a1.5,1.5,0,0,0-1.5-1.5H38.606a3,3,0,0,0-2.5,1.336L35,275H33l-1.109-1.664a3,3,0,0,0-2.5-1.336H17.5a1.5,1.5,0,0,0-1.5,1.5v3a1.5,1.5,0,0,0,1.5,1.5,1.5,1.5,0,0,1,1.5,1.5v3a1.5,1.5,0,0,1-1.5,1.5,1.5,1.5,0,0,0-1.5,1.5v3a1.5,1.5,0,0,0,1.5,1.5,1.5,1.5,0,0,1,1.5,1.5v3a1.5,1.5,0,0,1-1.5,1.5,1.5,1.5,0,0,0-1.5,1.5v3a1.5,1.5,0,0,0,1.5,1.5H29.394a3,3,0,0,0,2.5-1.336L33,299h2l1.109,1.664a3,3,0,0,0,2.5,1.336H104.5a1.5,1.5,0,0,0,1.5-1.5v-3a1.5,1.5,0,0,0-1.5-1.5A1.5,1.5,0,0,1,103,294.5Z" transform="translate(-16 -272)" fill="#00d2d2"/>
    </g>
    <g id="Group_9069" data-name="Group 9069" transform="translate(33 119)">
      <path id="Path_1174" data-name="Path 1174" d="M107.667,289.5a1,1,0,0,1-1-1V288h2v.5A1,1,0,0,1,107.667,289.5Z" transform="translate(-106.667 -288)" fill="#289bc3"/>
    </g>
    <g id="Group_9070" data-name="Group 9070" transform="translate(33 141.5)">
      <path id="Path_1175" data-name="Path 1175" d="M108.666,409.5h-2V409a1,1,0,1,1,2,0v.5Z" transform="translate(-106.666 -408)" fill="#289bc3"/>
    </g>
    <g id="Group_9071" data-name="Group 9071" transform="translate(33 135.5)">
      <path id="Path_1176" data-name="Path 1176" d="M107.667,379a1,1,0,0,1-1-1v-1a1,1,0,1,1,2,0v1A1,1,0,0,1,107.667,379Z" transform="translate(-106.667 -376.001)" fill="#289bc3"/>
    </g>
    <g id="Group_9072" data-name="Group 9072" transform="translate(33 123.5)">
      <path id="Path_1177" data-name="Path 1177" d="M107.667,315a1,1,0,0,1-1-1v-1a1,1,0,1,1,2,0v1A1,1,0,0,1,107.667,315Z" transform="translate(-106.667 -312.001)" fill="#289bc3"/>
    </g>
    <g id="Group_9073" data-name="Group 9073" transform="translate(33 129.5)">
      <path id="Path_1178" data-name="Path 1178" d="M107.667,347a1,1,0,0,1-1-1v-1a1,1,0,1,1,2,0v1A1,1,0,0,1,107.667,347Z" transform="translate(-106.667 -344.001)" fill="#289bc3"/>
    </g>
    <path id="Path_1179" data-name="Path 1179" d="M57.125,312.75a1.125,1.125,0,0,0,1.125-1.125v-.219a3.91,3.91,0,0,0-3-3.8v-.485a1.125,1.125,0,0,0-2.25,0v.485a3.9,3.9,0,0,0-.841,7.289l2.926,1.463a1.656,1.656,0,0,1-.741,3.137h-.438a1.658,1.658,0,0,1-1.656-1.656v-.219a1.125,1.125,0,0,0-2.25,0v.219a3.91,3.91,0,0,0,3,3.8v.485a1.125,1.125,0,0,0,2.25,0v-.485a3.9,3.9,0,0,0,.841-7.289l-2.926-1.463a1.656,1.656,0,0,1,.741-3.137h.438A1.658,1.658,0,0,1,56,311.406v.219A1.125,1.125,0,0,0,57.125,312.75Z" transform="translate(-27.625 -183.625)" fill="#d7e6f0"/>
    <g id="Group_9079" data-name="Group 9079" transform="translate(38.875 123.875)">
      <g id="Group_9074" data-name="Group 9074" transform="translate(24 0)">
        <path id="Path_1180" data-name="Path 1180" d="M269.375,320.75a3.375,3.375,0,1,1,3.375-3.375A3.379,3.379,0,0,1,269.375,320.75Zm0-4.5a1.125,1.125,0,1,0,1.125,1.125A1.126,1.126,0,0,0,269.375,316.25Z" transform="translate(-266 -314)" fill="#ff6e91"/>
      </g>
      <g id="Group_9075" data-name="Group 9075" transform="translate(31.5 7.5)">
        <path id="Path_1181" data-name="Path 1181" d="M309.375,360.75a3.375,3.375,0,1,1,3.375-3.375A3.379,3.379,0,0,1,309.375,360.75Zm0-4.5a1.125,1.125,0,1,0,1.125,1.125A1.126,1.126,0,0,0,309.375,356.25Z" transform="translate(-306 -354)" fill="#ff6e91"/>
      </g>
      <g id="Group_9076" data-name="Group 9076" transform="translate(25.5 0)">
        <path id="Path_1182" data-name="Path 1182" d="M275.124,328.25a1.125,1.125,0,0,1-.9-1.8l9-12a1.125,1.125,0,0,1,1.8,1.35l-9,12a1.123,1.123,0,0,1-.9.45Z" transform="translate(-274 -314)" fill="#ff6e91"/>
      </g>
      <g id="Group_9077" data-name="Group 9077" transform="translate(0 6)">
        <path id="Path_1183" data-name="Path 1183" d="M157.125,348.25h-18a1.125,1.125,0,0,1,0-2.25h18a1.125,1.125,0,0,1,0,2.25Z" transform="translate(-138 -346)" fill="#289bc3"/>
      </g>
      <g id="Group_9078" data-name="Group 9078" transform="translate(42 6)">
        <path id="Path_1184" data-name="Path 1184" d="M381.125,348.25h-18a1.125,1.125,0,0,1,0-2.25h18a1.125,1.125,0,0,1,0,2.25Z" transform="translate(-362 -346)" fill="#289bc3"/>
      </g>
    </g>
  </g>
</svg>
