<svg xmlns="http://www.w3.org/2000/svg" width="50" height="50" viewBox="0 0 50 50">
  <g id="Group_9032" data-name="Group 9032" transform="translate(-379 -512)">
    <rect id="Rectangle_2072" data-name="Rectangle 2072" width="50" height="50" transform="translate(379 512)" fill="none"/>
    <g id="_003-online-shopping" data-name="003-online-shopping" transform="translate(379 487.13)">
      <path id="Path_25" data-name="Path 25" d="M47.314,31.5H34.139l-.041,0a13.471,13.471,0,0,0-1.555-1.257.732.732,0,0,0-.834,1.2,11.906,11.906,0,1,1-2.974-1.494.732.732,0,0,0,.468-1.388,13.448,13.448,0,1,0,6.237,4.4H47.314a1.222,1.222,0,0,1,1.221,1.221V57.241H42.742a.732.732,0,0,0,0,1.465h5.793v3.846a1.222,1.222,0,0,1-1.221,1.221H2.686a1.222,1.222,0,0,1-1.221-1.221V58.706H39.053a.732.732,0,0,0,0-1.465H1.465V34.189a1.222,1.222,0,0,1,1.221-1.221H11.42a.732.732,0,0,0,0-1.465H2.686A2.689,2.689,0,0,0,0,34.189V62.552a2.689,2.689,0,0,0,2.686,2.686H18.74v5.724H16.529a.732.732,0,1,0,0,1.465H33.292a.732.732,0,0,0,0-1.465H31.081V65.238H47.314A2.689,2.689,0,0,0,50,62.552V34.189A2.689,2.689,0,0,0,47.314,31.5Zm-17.7,39.459H20.2V65.238h9.412Z" transform="translate(0 0)" fill="#fff"/>
      <path id="Path_26" data-name="Path 26" d="M171.71,92.284a1.756,1.756,0,0,0-1.724-1.429H169.2a.732.732,0,0,0,0,1.465h.783a.29.29,0,0,1,.285.236l2.167,11.481a.733.733,0,0,0,.72.6h.494a1.367,1.367,0,1,0,2.036,0H178.7a1.367,1.367,0,1,0,2.036,0h.659a.732.732,0,0,0,0-1.465h-7.631l-.3-1.583h8.185a.733.733,0,0,0,.72-.6l1.3-6.858s0-.009,0-.013a.881.881,0,0,0-.868-1.029H171.862ZM172.8,98.07h2l.15,2.051h-1.761Zm5.23,0-.15,2.051h-1.464l-.15-2.051Zm-1.87-1.465-.15-2.051h2.277l-.15,2.051Zm3.189,3.516.15-2.051h1.932l-.389,2.051Zm2.36-3.516h-2.1l.15-2.051H182.1Zm-7.168-2.051.15,2.051h-2.168l-.387-2.051Z" transform="translate(-152.018 -56.834)" fill="#fff"/>
      <path id="Path_27" data-name="Path 27" d="M42.083,261.566h4.332a.732.732,0,0,0,0-1.465H42.083a.732.732,0,0,0,0,1.465Z" transform="translate(-37.313 -209.552)" fill="#fff"/>
      <path id="Path_28" data-name="Path 28" d="M42.083,295.395h8.083a.732.732,0,1,0,0-1.465H42.083a.732.732,0,0,0,0,1.465Z" transform="translate(-37.313 -240.077)" fill="#fff"/>
      <path id="Path_29" data-name="Path 29" d="M414.454,108.37a.732.732,0,0,0-.732.732v1.833h-1.833a.732.732,0,0,0,0,1.465h1.833v1.833a.732.732,0,1,0,1.465,0V112.4h1.833a.732.732,0,0,0,0-1.465h-1.833V109.1A.732.732,0,0,0,414.454,108.37Z" transform="translate(-371.004 -72.639)" fill="#fff"/>
    </g>
  </g>
</svg>
