<svg xmlns="http://www.w3.org/2000/svg" width="90" height="90" viewBox="0 0 90 90">
  <g id="Group_9120" data-name="Group 9120" transform="translate(-629 -807)">
    <rect id="Rectangle_2203" data-name="Rectangle 2203" width="90" height="90" transform="translate(629 807)" fill="#fff"/>
    <g id="Group_9119" data-name="Group 9119" transform="translate(0 15)">
      <g id="eyeglasses" transform="translate(629 704.255)">
        <path id="Path_1215" data-name="Path 1215" d="M32.361,144.618s-4.227,1.356-3.589,9.491S33.159,170.024,42.65,170.3c8.514.248,11.405-1.914,15.872-7.657s4.626-13.16.8-15.553A31.676,31.676,0,0,0,32.361,144.618Z" transform="translate(-22.449 -5.846)" fill="#ebf0f3" opacity="0.5"/>
        <path id="Path_1217" data-name="Path 1217" d="M261.614,145.5s4.166,1.336,3.537,9.355-4.325,15.685-13.678,15.958c-8.392.245-11.241-1.887-15.643-7.547s-4.559-12.971-.786-15.329A31.219,31.219,0,0,1,261.614,145.5Z" transform="translate(-181.713 -6.56)" fill="#ebf0f3" opacity="0.5"/>
        <path id="Path_1218" data-name="Path 1218" d="M89.241,139.278c-6.209-3.287-17.477-4.663-25.166-3.815a29.54,29.54,0,0,0-13.257,4.773,2.821,2.821,0,0,1-1.832-.005,7.844,7.844,0,0,0-2.07-.29H43.085a7.847,7.847,0,0,0-2.07.29,2.821,2.821,0,0,1-1.832.005,29.54,29.54,0,0,0-13.257-4.773c-7.689-.848-18.957.528-25.166,3.815A1.422,1.422,0,0,0,0,140.535v1.533a1.426,1.426,0,0,0,.727,1.238,6.147,6.147,0,0,1,3.1,3.823c.649,2.947,1.827,10.607,5.068,14.024s8.248,6.187,17.44,4.713S39.83,154.554,39.83,154.554s2-4.066,2.239-5.951-1.119-3.064-.471-3.595c.575-.469,1.013-1.772,3.4-1.816,2.39.044,2.828,1.347,3.4,1.816.647.531-.707,1.709-.471,3.595s2.239,5.951,2.239,5.951,4.3,9.84,13.493,11.312,14.2-1.3,17.44-4.713,4.42-11.077,5.068-14.024a6.146,6.146,0,0,1,3.1-3.823A1.426,1.426,0,0,0,90,142.069v-1.533a1.422,1.422,0,0,0-.759-1.257Zm-53.5,17.364c-4.354,5.6-7.172,7.706-15.473,7.464-9.251-.27-12.905-7.853-13.527-15.784s3.5-9.252,3.5-9.252a30.877,30.877,0,0,1,26.279,2.412C40.251,143.814,40.1,151.044,35.742,156.643Zm47.517-8.319c-.622,7.931-4.277,15.513-13.527,15.784-8.3.242-11.119-1.866-15.473-7.464s-4.509-12.828-.778-15.16a30.877,30.877,0,0,1,26.279-2.412S83.88,140.394,83.258,148.323Z" fill="#64798a"/>
      </g>
      <g id="Group_9117" data-name="Group 9117">
        <path id="Path_1219" data-name="Path 1219" d="M3652.286,851.922v8.089" transform="translate(-3000.837 -2.327)" fill="none" stroke="#ff6e91" stroke-width="2"/>
        <path id="Path_1221" data-name="Path 1221" d="M3652.286,851.922v26.747" transform="translate(-3000.837 -33.619)" fill="none" stroke="#ff6e91" stroke-width="2" stroke-dasharray="2"/>
        <path id="Path_1220" data-name="Path 1220" d="M0,0V8.089" transform="translate(655.494 853.64) rotate(90)" fill="none" stroke="#ff6e91" stroke-width="2"/>
      </g>
      <g id="Group_9118" data-name="Group 9118" transform="translate(45)">
        <path id="Path_1219-2" data-name="Path 1219" d="M3652.286,851.922v8.089" transform="translate(-3000.837 -2.327)" fill="none" stroke="#ff6e91" stroke-width="2"/>
        <path id="Path_1221-2" data-name="Path 1221" d="M3652.286,851.922v26.747" transform="translate(-3000.837 -33.619)" fill="none" stroke="#ff6e91" stroke-width="2" stroke-dasharray="2"/>
        <path id="Path_1220-2" data-name="Path 1220" d="M0,0V8.089" transform="translate(655.494 853.64) rotate(90)" fill="none" stroke="#ff6e91" stroke-width="2"/>
      </g>
      <text id="Right_pd" data-name="Right pd" transform="translate(696 812)" fill="#00d2d2" font-size="8" font-family="OpenSans-Semibold, Open Sans" font-weight="600"><tspan x="-18" y="0">RIGHT PD</tspan></text>
      <text id="left_pd" data-name="left pd" transform="translate(651 812)" fill="#00d2d2" font-size="8" font-family="OpenSans-Semibold, Open Sans" font-weight="600"><tspan x="-15" y="0">LEFT PD</tspan></text>
    </g>
  </g>
</svg>
