<svg xmlns="http://www.w3.org/2000/svg" width="90" height="72.455" viewBox="0 0 90 72.455">
  <g id="Group_9158" data-name="Group 9158" transform="translate(-157 -823)">
    <g id="Group_9157" data-name="Group 9157" transform="translate(170.585 823)" opacity="0.55">
      <path id="Path_1224" data-name="Path 1224" d="M333.289,1366.83v52.725c-2.16.091-3.524.141-3.524.141s-23.8-.126-28.588-16.622-3.147-25.313-3.147-25.313.881-7.556,10.2-9.068a125.988,125.988,0,0,1,15.993-1.638S327.986,1366.914,333.289,1366.83Z" transform="translate(-297.759 -1366.769)" fill="#ffa1a1"/>
      <path id="Path_1225" data-name="Path 1225" d="M478.222,1405.027s-3.275,11.206-10.957,12.467c-5.739.942-19.061,1.6-25.439,1.874v-52.725c8.893-.141,22.117-.123,29.217.981,11.335,1.763,11.46,7.556,11.46,7.556S484.141,1381.98,478.222,1405.027Z" transform="translate(-406.296 -1366.581)" fill="#ffa1a1"/>
    </g>
    <g id="Group_9156" data-name="Group 9156" transform="translate(162.943 831.491)" opacity="0.55">
      <path id="Path_1224-2" data-name="Path 1224" d="M333.289,1366.83v52.725c-2.16.091-3.524.141-3.524.141s-23.8-.126-28.588-16.622-3.147-25.313-3.147-25.313.881-7.556,10.2-9.068a125.988,125.988,0,0,1,15.993-1.638S327.986,1366.914,333.289,1366.83Z" transform="translate(-297.759 -1366.769)" fill="#ffe854"/>
      <path id="Path_1225-2" data-name="Path 1225" d="M478.222,1405.027s-3.275,11.206-10.957,12.467c-5.739.942-19.061,1.6-25.439,1.874v-52.725c8.893-.141,22.117-.123,29.217.981,11.335,1.763,11.46,7.556,11.46,7.556S484.141,1381.98,478.222,1405.027Z" transform="translate(-406.296 -1366.581)" fill="#ffe854"/>
    </g>
    <g id="Group_9155" data-name="Group 9155" transform="translate(157 842.528)" opacity="0.55">
      <path id="Path_1224-3" data-name="Path 1224" d="M333.289,1366.83v52.725c-2.16.091-3.524.141-3.524.141s-23.8-.126-28.588-16.622-3.147-25.313-3.147-25.313.881-7.556,10.2-9.068a125.988,125.988,0,0,1,15.993-1.638S327.986,1366.914,333.289,1366.83Z" transform="translate(-297.759 -1366.769)" fill="#54ccff"/>
      <path id="Path_1225-3" data-name="Path 1225" d="M478.222,1405.027s-3.275,11.206-10.957,12.467c-5.739.942-19.061,1.6-25.439,1.874v-52.725c8.893-.141,22.117-.123,29.217.981,11.335,1.763,11.46,7.556,11.46,7.556S484.141,1381.98,478.222,1405.027Z" transform="translate(-406.296 -1366.581)" fill="#54ccff"/>
    </g>
  </g>
</svg>
