<svg xmlns="http://www.w3.org/2000/svg" width="50" height="50" viewBox="0 0 50 50">
  <g id="Group_9035" data-name="Group 9035" transform="translate(-1041 -512)">
    <rect id="Rectangle_2075" data-name="Rectangle 2075" width="50" height="50" transform="translate(1041 512)" fill="none"/>
    <g id="_001-continuous" data-name="001-continuous" transform="translate(1041 512)">
      <path id="Path_11" data-name="Path 11" d="M40.452,17.871H37.226V16.494l-1.473-.52q-.075-.19-.158-.38l.674-1.41L32.042,9.955l-1.41.674c-.125-.056-.252-.108-.38-.158L29.732,9H23.752l-.519,1.473q-.191.075-.38.158l-1.41-.674-4.227,4.229.674,1.41c-.056.127-.109.253-.158.38l-1.473.519v1.377H13.032A4.037,4.037,0,0,0,9,21.9V39.645a4.037,4.037,0,0,0,4.032,4.032h5.645V46.9H15.452a1.615,1.615,0,0,0-1.613,1.613v1.613a1.615,1.615,0,0,0,1.613,1.613H38.032a1.615,1.615,0,0,0,1.613-1.613V48.516A1.615,1.615,0,0,0,38.032,46.9H34.806V43.677h5.645a4.037,4.037,0,0,0,4.032-4.032V21.9a4.037,4.037,0,0,0-4.032-4.032Zm-22.581-.235,1.123-.4.126-.369a7.936,7.936,0,0,1,.385-.924l.173-.351-.515-1.076L21.777,11.9l1.077.515.352-.173a7.855,7.855,0,0,1,.924-.385l.369-.127.4-1.123h3.7l.4,1.123.369.127a7.855,7.855,0,0,1,.924.385l.352.173,1.077-.515,2.615,2.615L33.807,15.6l.173.351a7.934,7.934,0,0,1,.385.924l.126.369,1.123.4v.235H32.985a6.447,6.447,0,0,0-12.487,0H17.871Zm13.427.235H22.185a4.831,4.831,0,0,1,9.113,0ZM13.032,19.484H40.452A2.422,2.422,0,0,1,42.871,21.9v13.71H10.613V21.9A2.422,2.422,0,0,1,13.032,19.484Zm25,30.645H15.452V48.516H38.032ZM33.194,46.9H20.29V43.677h12.9Zm7.258-4.839H13.032a2.422,2.422,0,0,1-2.419-2.419V37.226H42.871v2.419A2.422,2.422,0,0,1,40.452,42.065Z" transform="translate(-1.742 -1.742)" fill="#fff"/>
      <circle id="Ellipse_3" data-name="Ellipse 3" cx="0.806" cy="0.806" r="0.806" transform="translate(20.968 37.097)" fill="#fff"/>
      <circle id="Ellipse_4" data-name="Ellipse 4" cx="0.806" cy="0.806" r="0.806" transform="translate(24.194 37.097)" fill="#fff"/>
      <circle id="Ellipse_5" data-name="Ellipse 5" cx="0.806" cy="0.806" r="0.806" transform="translate(27.419 37.097)" fill="#fff"/>
      <path id="Path_12" data-name="Path 12" d="M27.793,1.613a21.638,21.638,0,0,1,12.442,3.9.806.806,0,0,0,1.21-.96L39.832.508l-1.5.6.706,1.772A23.41,23.41,0,0,0,14.428,4.193l.923,1.323A21.628,21.628,0,0,1,27.793,1.613Z" transform="translate(-2.793)" fill="#fff"/>
      <path id="Path_13" data-name="Path 13" d="M4.555,14.057.507,15.67l.6,1.5,1.771-.706A23.417,23.417,0,0,0,4.192,41.074l1.323-.923a21.784,21.784,0,0,1,0-24.883.807.807,0,0,0-.96-1.21Z" transform="translate(0 -2.71)" fill="#fff"/>
      <path id="Path_14" data-name="Path 14" d="M57.766,39.039A23.413,23.413,0,0,0,56.45,14.428l-1.323.923a21.784,21.784,0,0,1,0,24.883.806.806,0,0,0,.96,1.21l4.048-1.613-.6-1.5Z" transform="translate(-10.642 -2.793)" fill="#fff"/>
      <path id="Path_15" data-name="Path 15" d="M0,0H13.3V1.612H0Z" transform="translate(22.606 32.069) rotate(-75.936)" fill="#fff"/>
      <path id="Path_16" data-name="Path 16" d="M36.356,35.563l6.565-4.689-6.565-4.689L35.419,27.5l4.726,3.376-4.726,3.376Z" transform="translate(-6.855 -5.068)" fill="#fff"/>
      <path id="Path_17" data-name="Path 17" d="M24.781,34.251l-4.726-3.376L24.781,27.5l-.937-1.313-6.565,4.689,6.565,4.689Z" transform="translate(-3.344 -5.068)" fill="#fff"/>
    </g>
  </g>
</svg>
