<svg xmlns="http://www.w3.org/2000/svg" width="50" height="50" viewBox="0 0 50 50">
  <g id="Group_9031" data-name="Group 9031" transform="translate(-158 -512)">
    <rect id="Rectangle_2071" data-name="Rectangle 2071" width="50" height="50" transform="translate(158 512)" fill="none"/>
    <g id="_004-checklist" data-name="004-checklist" transform="translate(153.238 512)">
      <path id="Path_30" data-name="Path 30" d="M179.7,36.848a3.224,3.224,0,1,0,3.224,3.224A3.228,3.228,0,0,0,179.7,36.848Zm0,4.984a1.76,1.76,0,1,1,1.76-1.76A1.762,1.762,0,0,1,179.7,41.832Z" transform="translate(-154.948 -33.25)" fill="#fff"/>
      <path id="Path_31" data-name="Path 31" d="M64.647,180.3H68.92a3.213,3.213,0,0,0,3.209-3.209v-4.273a3.213,3.213,0,0,0-3.209-3.209H64.647a3.213,3.213,0,0,0-3.209,3.209v4.273A3.213,3.213,0,0,0,64.647,180.3ZM62.9,172.817a1.746,1.746,0,0,1,1.744-1.744H68.92a1.746,1.746,0,0,1,1.744,1.744v4.273a1.746,1.746,0,0,1-1.744,1.744H64.647A1.746,1.746,0,0,1,62.9,177.09Z" transform="translate(-51.141 -153.045)" fill="#fff"/>
      <path id="Path_32" data-name="Path 32" d="M88.143,202.689a.733.733,0,0,0,.565.267h.047a.732.732,0,0,0,.573-.341l2.554-4.062a.732.732,0,0,0-1.24-.78l-2.014,3.2-1.062-1.289a.732.732,0,0,0-1.131.932Z" transform="translate(-73.547 -178.148)" fill="#fff"/>
      <path id="Path_33" data-name="Path 33" d="M190.145,199.35h11.41a.732.732,0,1,0,0-1.465h-11.41a.732.732,0,1,0,0,1.465Z" transform="translate(-166.619 -178.56)" fill="#fff"/>
      <path id="Path_34" data-name="Path 34" d="M190.145,237.274h5.7a.732.732,0,1,0,0-1.465h-5.7a.732.732,0,0,0,0,1.465Z" transform="translate(-166.619 -212.781)" fill="#fff"/>
      <path id="Path_35" data-name="Path 35" d="M61.438,319.9a3.213,3.213,0,0,0,3.209,3.209H68.92a3.213,3.213,0,0,0,3.209-3.209v-4.273a3.213,3.213,0,0,0-3.209-3.209H64.647a3.213,3.213,0,0,0-3.209,3.209Zm1.465-4.273a1.746,1.746,0,0,1,1.744-1.744H68.92a1.746,1.746,0,0,1,1.744,1.744V319.9a1.746,1.746,0,0,1-1.744,1.744H64.647A1.746,1.746,0,0,1,62.9,319.9Z" transform="translate(-51.141 -281.905)" fill="#fff"/>
      <path id="Path_36" data-name="Path 36" d="M88.143,345.495a.732.732,0,0,0,.565.267h.047a.733.733,0,0,0,.573-.341l2.554-4.062a.732.732,0,0,0-1.24-.78l-2.014,3.2-1.062-1.288a.732.732,0,1,0-1.131.931Z" transform="translate(-73.547 -307.008)" fill="#fff"/>
      <path id="Path_37" data-name="Path 37" d="M195.85,380.08a.732.732,0,1,0,0-1.465h-5.7a.732.732,0,1,0,0,1.465Z" transform="translate(-166.619 -341.641)" fill="#fff"/>
      <path id="Path_38" data-name="Path 38" d="M52.266,12.752a3.115,3.115,0,0,0-.921-.5L53.4,9.117a2.6,2.6,0,0,0-.574-3.5,2.618,2.618,0,0,0-3.533.274L48.5,6.74a.732.732,0,1,0,1.071,1l.789-.846a1.154,1.154,0,0,1,1.81,1.42L48.2,14.374l-2.78-2.181,2.156-2.312a.732.732,0,0,0-1.071-1l-1.936,2.076a7.427,7.427,0,0,0-7.216-5.78h-1.44a4.881,4.881,0,0,0-3.353-1.332H30.895a6.823,6.823,0,0,0-12.278,0H16.949A4.881,4.881,0,0,0,13.6,5.177H12.157a7.4,7.4,0,0,0-7.395,7.394V42.605A7.4,7.4,0,0,0,12.157,50h1.7a.732.732,0,1,0,0-1.465h-1.7a5.936,5.936,0,0,1-5.93-5.93V12.571a5.936,5.936,0,0,1,5.93-5.929h.367a4.9,4.9,0,0,0,4.425,7H32.563a4.9,4.9,0,0,0,4.425-7h.368a5.954,5.954,0,0,1,5.781,4.616,2.187,2.187,0,0,0-1.71,3.025L29.049,30.059a3.6,3.6,0,0,0-.746,2.668,3.675,3.675,0,0,0,.108.544H23.527a.732.732,0,1,0,0,1.465H29.05L28.6,35.3a.732.732,0,1,0,1.152.9l.528-.673a3.581,3.581,0,0,0,1.605.379,3.667,3.667,0,0,0,.441-.027,3.6,3.6,0,0,0,2.414-1.359L43.083,23.9c.064.063.132.122.2.18V42.605a5.936,5.936,0,0,1-5.929,5.93H16.79a.732.732,0,1,0,0,1.465H37.356a7.4,7.4,0,0,0,7.394-7.395V24.748A3.122,3.122,0,0,0,47.714,23.6l5.08-6.474a3.115,3.115,0,0,0-.528-4.373Zm-19.7-.571H16.949a3.435,3.435,0,1,1,0-6.871h2.145a.732.732,0,0,0,.681-.462,5.358,5.358,0,0,1,9.961,0,.732.732,0,0,0,.681.462h2.145a3.435,3.435,0,1,1,0,6.871Zm10.309.8a.725.725,0,0,1,1.019-.123l4.034,3.165h0a.726.726,0,0,1-.9,1.142L42.995,14a.726.726,0,0,1-.123-1.019Zm-7.98,18.99-1.119-.878,8.014-10.215a.732.732,0,1,0-1.152-.9L32.621,30.185,31.5,29.307,42.412,15.4l3.39,2.66Zm-2.737,2.466a2.155,2.155,0,0,1-1.954-3.47l.4-.5,3.391,2.66-.4.5A2.141,2.141,0,0,1,32.156,34.433ZM51.641,16.221,46.562,22.7A1.644,1.644,0,0,1,44,22.733l3.125-3.983A2.189,2.189,0,0,0,49.3,15.374l1.19-1.816a1.651,1.651,0,0,1,1.154,2.662Z" transform="translate(0 0)" fill="#fff"/>
    </g>
  </g>
</svg>
