<svg xmlns="http://www.w3.org/2000/svg" width="50" height="50" viewBox="0 0 50 50">
  <g id="Group_9033" data-name="Group 9033" transform="translate(-599 -512)">
    <rect id="Rectangle_2073" data-name="Rectangle 2073" width="50" height="50" transform="translate(599 512)" fill="none"/>
    <g id="Glasses" transform="translate(529.512 328.629)">
      <path id="Path_39" data-name="Path 39" d="M118.936,201.214c-7.462-1.923-16.587-.121-21.362,1.125a12.544,12.544,0,0,1-6.346-.009c-4.716-1.241-13.74-3.036-21.19-1.116a.735.735,0,0,0,.367,1.423c.122-.031.246-.059.369-.089a2.268,2.268,0,0,0,.022.466l1.143,7.512a8.569,8.569,0,0,0,8.446,7.259q.358,0,.72-.031l1.7-.143c4.749-.4,8.235-3.235,9.1-7.394l.37-1.787a5.211,5.211,0,0,1,4.236-.093l.39,1.879c.862,4.159,4.348,6.992,9.1,7.394l1.7.143q.363.031.72.031a8.57,8.57,0,0,0,8.446-7.259L118,203.013a2.266,2.266,0,0,0,.018-.509c.184.042.368.085.55.132a.735.735,0,0,0,.367-1.423Zm-28.474,8.705c-.736,3.55-3.645,5.878-7.782,6.228l-1.7.144a7.093,7.093,0,0,1-7.59-5.986l-1.142-7.512a.813.813,0,0,1,.12-.567c6.707-1.114,14.321.43,18.486,1.525q.42.111.846.194Zm4.057-3.455h-.026a6.713,6.713,0,0,0-1.869.264l.534-2.575c.42.038.841.058,1.263.058s.814-.019,1.22-.054l.522,2.517A6.719,6.719,0,0,0,94.52,206.464Zm22.029-3.672-1.143,7.512a7.094,7.094,0,0,1-7.59,5.986l-1.7-.143c-4.137-.35-7.046-2.678-7.782-6.228L97.1,203.953q.426-.083.847-.192c4.179-1.09,11.776-2.622,18.463-1.567a.814.814,0,0,1,.14.6Z" transform="translate(0 0)" fill="#fff"/>
    </g>
  </g>
</svg>
