<svg xmlns="http://www.w3.org/2000/svg" width="100" height="100" viewBox="0 0 100 100">
  <g id="Group_9038" data-name="Group 9038" transform="translate(-633 -1137)">
    <rect id="Rectangle_2078" data-name="Rectangle 2078" width="100" height="100" transform="translate(633 1137)" fill="none"/>
    <g id="Administrator-Smartphone-Cloud-Office-Internet" transform="translate(631 1135)">
      <path id="Path_64" data-name="Path 64" d="M28,25h3.333v3.333H28Z" transform="translate(17.333 15.333)" fill="#0c6494"/>
      <path id="Path_65" data-name="Path 65" d="M34,25h3.333v3.333H34Z" transform="translate(21.333 15.333)" fill="#0c6494"/>
      <path id="Path_66" data-name="Path 66" d="M100.333,78H77V66.117a11.685,11.685,0,0,0-4.028-8.81L73,57.155a5,5,0,0,0-4.932-5.822H61.027l-2.36-1.073V47.845a13.282,13.282,0,0,0,6.25-8.235c.14.012.275.057.417.057a4.987,4.987,0,0,0,.627-9.937l2.218-2.218a1.667,1.667,0,0,0,.488-1.178v-5A8.343,8.343,0,0,0,60.333,13H33.667a1.667,1.667,0,0,0-1.492,2.412l2.962,5.922-1.3,2.588a1.667,1.667,0,0,0,.313,1.923L38.04,29.73a4.987,4.987,0,0,0,.627,9.937c.142,0,.278-.045.42-.058a13.333,13.333,0,0,0,3.485,6.155,13.1,13.1,0,0,0,2.762,2.058V50.26l-2.36,1.073H35.935A5,5,0,0,0,31,57.155l.025.152A11.685,11.685,0,0,0,27,66.117V78H3.667A1.667,1.667,0,0,0,2,79.667v6.667A1.667,1.667,0,0,0,3.667,88H7v5a1.667,1.667,0,0,0,1.667,1.667H95.333A1.667,1.667,0,0,0,97,93V88h3.333A1.667,1.667,0,0,0,102,86.333V79.667A1.667,1.667,0,0,0,100.333,78ZM73.667,66.117V78h-3.64a4.943,4.943,0,0,0,.307-1.667V73.138L72.273,61.5A8.378,8.378,0,0,1,73.667,66.117ZM37,76.333V74.667H67v1.667A1.667,1.667,0,0,1,65.333,78H38.667A1.667,1.667,0,0,1,37,76.333ZM67,34.667a1.667,1.667,0,0,1-1.667,1.667V33A1.667,1.667,0,0,1,67,34.667ZM38.5,20.588l-2.137-4.255h23.97a5,5,0,0,1,5,5v4.31L62.977,28h-.242a1.667,1.667,0,0,1-1.58-1.14l-.907-2.72a1.667,1.667,0,0,0-2.582-.807l-3.112,2.333a11.733,11.733,0,0,1-7,2.333H41.023l-3.667-3.667,1.13-2.26a1.667,1.667,0,0,0,.013-1.485ZM37,34.667A1.667,1.667,0,0,1,38.667,33v3.333A1.667,1.667,0,0,1,37,34.667ZM42.052,37.3A7.691,7.691,0,0,1,42,36.333v-5h5.555a15.087,15.087,0,0,0,9-3l1.262-.947.167.528A5,5,0,0,0,62,31.275v5.058a7.668,7.668,0,0,1-.06,1.023,10,10,0,0,1-14.237,8,9.722,9.722,0,0,1-2.775-1.95A9.985,9.985,0,0,1,42.052,37.3Zm6.615,11.93a12.942,12.942,0,0,0,6.667,0v2.1H48.667Zm-14,6.027a1.637,1.637,0,0,1,1.268-.59h32.13a1.667,1.667,0,0,1,1.643,1.94L67.255,71.333H36.745L34.292,56.607a1.642,1.642,0,0,1,.375-1.35Zm-4.333,10.86A8.378,8.378,0,0,1,31.727,61.5l1.94,11.64v3.195A4.943,4.943,0,0,0,33.973,78h-3.64ZM93.667,91.333H10.333V88H93.667Zm5-6.667H5.333V81.333H98.667Z" transform="translate(0 7.333)" fill="#0c6494"/>
      <path id="Path_67" data-name="Path 67" d="M34,50a5,5,0,1,0-5-5A5,5,0,0,0,34,50Zm0-6.667A1.667,1.667,0,1,1,32.333,45,1.667,1.667,0,0,1,34,43.333Z" transform="translate(18 25.333)" fill="#0c6494"/>
      <path id="Path_68" data-name="Path 68" d="M48.669,25.321h20a6.667,6.667,0,0,0,0-13.333H68.5a8.083,8.083,0,0,0,.167-1.667A8.333,8.333,0,0,0,52.691,7.036,5,5,0,0,0,47,11.988v.21a6.667,6.667,0,0,0,1.667,13.123Zm0-10h.462a1.667,1.667,0,0,0,1.44-2.5,1.638,1.638,0,0,1-.235-.833,1.695,1.695,0,0,1,2.553-1.4,1.667,1.667,0,0,0,2.537-1.122,4.992,4.992,0,0,1,9.91.857,4.91,4.91,0,0,1-.7,2.5,1.667,1.667,0,0,0,1.44,2.5h2.592a3.333,3.333,0,1,1,0,6.667h-20a3.333,3.333,0,0,1,0-6.667Z" transform="translate(26.664 0.012)" fill="#0c6494"/>
      <path id="Path_69" data-name="Path 69" d="M10.333,38.667h10a8.343,8.343,0,0,0,8.333-8.333v-20A8.343,8.343,0,0,0,20.333,2h-10A8.343,8.343,0,0,0,2,10.333v20a8.343,8.343,0,0,0,8.333,8.333Zm-5-28.333a5,5,0,0,1,5-5h10a5,5,0,0,1,5,5v20a5,5,0,0,1-5,5h-10a5,5,0,0,1-5-5Z" transform="translate(0 0)" fill="#0c6494"/>
      <path id="Path_70" data-name="Path 70" d="M8,6h6.667V9.333H8Z" transform="translate(4 2.667)" fill="#0c6494"/>
      <path id="Path_71" data-name="Path 71" d="M9,18h3.333v3.333H9Z" transform="translate(4.667 10.667)" fill="#0c6494"/>
      <path id="Path_72" data-name="Path 72" d="M7,10H17v3.333H7Z" transform="translate(3.333 5.333)" fill="#0c6494"/>
      <path id="Path_73" data-name="Path 73" d="M7,14H17v3.333H7Z" transform="translate(3.333 8)" fill="#0c6494"/>
      <path id="Path_74" data-name="Path 74" d="M54,37h3.333v3.333H54Z" transform="translate(34.667 23.333)" fill="#0c6494"/>
      <path id="Path_75" data-name="Path 75" d="M63.251,35.438a8.347,8.347,0,0,0-11.787,0L53.821,37.8a5.01,5.01,0,0,1,7.073,0Z" transform="translate(32.976 20.668)" fill="#0c6494"/>
      <path id="Path_76" data-name="Path 76" d="M69.849,33.393a15,15,0,0,0-21.213,0l2.357,2.357a11.667,11.667,0,0,1,16.5,0Z" transform="translate(31.091 18)" fill="#0c6494"/>
      <path id="Path_77" data-name="Path 77" d="M49,45.8v3.333h5a1.666,1.666,0,0,0,1.178-.488l5-5-2.357-2.357L53.31,45.8Z" transform="translate(31.333 26.195)" fill="#0c6494"/>
      <path id="Path_78" data-name="Path 78" d="M9,26v6.667a1.666,1.666,0,0,0,.488,1.178L21.155,45.512l2.357-2.357L12.333,31.977V26Z" transform="translate(4.667 16)" fill="#0c6494"/>
      <path id="Path_79" data-name="Path 79" d="M58.333,26.333V18H55v6.667H45V28H56.667A1.667,1.667,0,0,0,58.333,26.333Z" transform="translate(28.667 10.667)" fill="#0c6494"/>
    </g>
  </g>
</svg>
