<svg xmlns="http://www.w3.org/2000/svg" width="100" height="100" viewBox="0 0 100 100">
  <g id="Group_9040" data-name="Group 9040" transform="translate(-192 -1041)">
    <rect id="Rectangle_2076" data-name="Rectangle 2076" width="100" height="100" transform="translate(192 1041)" fill="none"/>
    <g id="_001-programmer" data-name="001-programmer" transform="translate(198 1041)">
      <g id="Group_9022" data-name="Group 9022" transform="translate(54.913 72.365)">
        <g id="Group_9021" data-name="Group 9021">
          <path id="Path_51" data-name="Path 51" d="M315.373,370.505a4.851,4.851,0,1,0,4.851,4.851A4.857,4.857,0,0,0,315.373,370.505Zm0,6.772a1.921,1.921,0,1,1,1.921-1.921A1.923,1.923,0,0,1,315.373,377.277Z" transform="translate(-310.522 -370.505)" fill="#0c6494"/>
        </g>
      </g>
      <g id="Group_9024" data-name="Group 9024" transform="translate(0 0)">
        <g id="Group_9023" data-name="Group 9023">
          <path id="Path_52" data-name="Path 52" d="M114.38,91.434h-.934c.2-.844.067-.226.106-15.153a1.465,1.465,0,1,0-2.93,0V90.555a.891.891,0,0,1-.879.879H68.525a.891.891,0,0,1-.879-.879V63.878A.891.891,0,0,1,68.525,63h41.218a.891.891,0,0,1,.879.879v5.566a1.465,1.465,0,0,0,2.93,0V63.878a3.814,3.814,0,0,0-3.809-3.809H78.676l-3.267-1.111A.611.611,0,0,1,75,58.379V54.788A19.3,19.3,0,0,0,84.355,40.25c4.484.208,7.557-4.073,5.7-7.786V20.52c0-8.638-4.7-11.642-6.133-12.359C75.642-1.72,58.582-3.157,48.1,6.773a1.467,1.467,0,0,0,1,2.533c1.079,0,.914-.755,4.25-2.924.247-.16.726-.443.706-.431C62.7.766,75.44,2.354,81.865,10.276a1.407,1.407,0,0,0,.609.443c.19.076,4.648,1.952,4.648,9.8v9.247a6.307,6.307,0,0,0-2.654-.494V24.481a2.343,2.343,0,0,0-2.13-2.338A5.787,5.787,0,0,1,77.772,19a2.941,2.941,0,0,0-4.487-.811C66.752,23.771,59.23,24.055,54.07,23.31a7.208,7.208,0,0,0-8.153,5.964,6.335,6.335,0,0,0-2.747.492c.092-4.563-.683-9.5,2.931-15.8A1.465,1.465,0,0,0,43.559,12.5a25.072,25.072,0,0,0-3.3,11.44c-.037.945-.014.6-.021,8.518-1.863,3.718,1.223,7.993,5.7,7.786A19.333,19.333,0,0,0,55.842,55.1v3.275a.611.611,0,0,1-.412.578c-5.807,2.03,1.036-.438-14.189,4.961a10.037,10.037,0,0,0-1.559.505,9.708,9.708,0,0,0-5.936,7.22c-4.57,22.955-4.4,21.653-4.365,22.9C29.523,98.162,31.838,100,35.4,100H70.22a1.465,1.465,0,0,0,0-2.93h-4.8c-2.048,0-2.726-2.707-1.53-2.707h50.491c1.2,0,.512,2.707-1.53,2.707H77.057a1.465,1.465,0,1,0,0,2.93h35.794a5.054,5.054,0,0,0,5.048-5.048A3.522,3.522,0,0,0,114.38,91.434ZM84.468,32.2a2.857,2.857,0,0,1,3.2,2.559,2.857,2.857,0,0,1-3.2,2.559ZM45.823,37.321a2.857,2.857,0,0,1-3.2-2.559,2.857,2.857,0,0,1,3.2-2.559ZM48.777,39c-.037-.678-.019-.433-.023-7.984a4.521,4.521,0,0,1,1.471-3.806,4.3,4.3,0,0,1,3.428-1c5.758.832,14.17.5,21.537-5.8l.022.006a8.693,8.693,0,0,0,6.328,4.574c0,13.243.172,14.534-.487,17.155A16.706,16.706,0,0,1,79.1,46.778C70.5,60.367,49.578,55.025,48.777,39Zm-6,58.068H35.4c-2.508,0-2.958-1.187-3.069-2.221-.116-1.078.123-1.562,1.132-6.8h9.31Zm21.114-5.637h0c-2.381,0-4.248,2.306-3.233,5.191.042.119.113.3.18.446H45.705V83.262a1.465,1.465,0,1,0-2.93,0v1.862H34.048c2.764-13.871,2.605-13.291,2.906-14.09a6.571,6.571,0,0,1,2.791-3.361A7.64,7.64,0,0,1,42.1,66.72c.078-.022-.44.158,8.445-2.99h0l5.306-1.82A5.976,5.976,0,0,0,59.93,67.5a16.655,16.655,0,0,0,4.786.845c.093,22.293-.133,22.092.1,23.086Zm.827-27.556v1.54a13.7,13.7,0,0,1-3.856-.694,3.052,3.052,0,0,1-2.084-2.9c0-3.555.006-1.384-.005-5.417a19.222,19.222,0,0,0,11.393.42l0-.012.02-.005,0,.012a18.046,18.046,0,0,0,1.882-.616v3.861H68.526A3.814,3.814,0,0,0,64.716,63.877Z" transform="translate(-29.371 0)" fill="#0c6494"/>
        </g>
      </g>
    </g>
  </g>
</svg>
