<svg xmlns="http://www.w3.org/2000/svg" width="100" height="100" viewBox="0 0 100 100">
  <g id="Group_9036" data-name="Group 9036" transform="translate(-1075 -1237)">
    <rect id="Rectangle_2080" data-name="Rectangle 2080" width="100" height="100" transform="translate(1075 1237)" fill="none"/>
    <g id="online-shop" transform="translate(1075 1221.632)">
      <path id="Path_80" data-name="Path 80" d="M8.19,19.368a7.931,7.931,0,0,0-7.115,3.686A7.56,7.56,0,0,0,0,26.933V88.339A7.573,7.573,0,0,0,7.564,95.9h62.69V98.07a6.368,6.368,0,0,0,4.019,5.911,5.64,5.64,0,1,0,10.567.448h4.153a5.64,5.64,0,1,0,5.366-3.906H76.613a2.455,2.455,0,0,1-2.453-2.453V95.9H94.684A1.953,1.953,0,0,0,96.6,94.342L99.96,77.905a1.953,1.953,0,0,0-1.913-2.345H84.6V26.933a7.678,7.678,0,0,0-7.766-7.564H8.19Zm78.176,60.1-.408,4.312H81.027l-.408-4.311ZM81.8,92,81.4,87.685h4.192L85.181,92ZM71.05,79.468H76.7l.408,4.311H71.989Zm1.791,8.217h4.632L77.881,92h-4.1ZM89.1,92l.408-4.312h4.46L93.09,92Zm5.667-8.218h-4.89l.408-4.312h5.364ZM80.689,26.933v3.7H14.219a7.576,7.576,0,0,0,0-7.362H76.975A3.719,3.719,0,0,1,80.689,26.933ZM7.2,23.295c.073-.007.147-.009.221-.012.045,0,.089-.006.134-.007H7.6a3.676,3.676,0,1,1-.394.02ZM7.564,92a3.662,3.662,0,0,1-3.658-3.658V33.586a7.538,7.538,0,0,0,3.657.955H80.689V75.561H62.008a1.953,1.953,0,0,0,0,3.906h5.044L69.782,92Zm73.644,14.165a1.734,1.734,0,1,1-1.734-1.734A1.735,1.735,0,0,1,81.208,106.163ZM94.36,107.9a1.734,1.734,0,1,1,1.734-1.734A1.735,1.735,0,0,1,94.36,107.9Z" fill="#0c6494"/>
      <path id="Path_81" data-name="Path 81" d="M254.349,136.944h13.464a6.017,6.017,0,0,0,0-12.033H254.349a6.017,6.017,0,0,0,0,12.033Zm0-8.127h13.464a2.11,2.11,0,0,1,0,4.221H254.349a2.11,2.11,0,0,1,0-4.221Z" transform="translate(-199.83 -84.929)" fill="#0c6494"/>
      <path id="Path_82" data-name="Path 82" d="M103.317,293.419a1.953,1.953,0,1,0,0,3.906h9.412a1.953,1.953,0,0,0,0-3.906Z" transform="translate(-81.566 -220.525)" fill="#0c6494"/>
      <path id="Path_83" data-name="Path 83" d="M279.246,209.866H260.18a1.953,1.953,0,0,0,0,3.906h19.065a1.953,1.953,0,0,0,0-3.906Z" transform="translate(-207.792 -153.291)" fill="#0c6494"/>
      <path id="Path_84" data-name="Path 84" d="M279.246,251.213H260.18a1.953,1.953,0,0,0,0,3.906h19.065a1.953,1.953,0,0,0,0-3.906Z" transform="translate(-207.792 -186.563)" fill="#0c6494"/>
      <path id="Path_85" data-name="Path 85" d="M194.754,294.32a1.953,1.953,0,1,0-.541,2.707A1.976,1.976,0,0,0,194.754,294.32Z" transform="translate(-153.844 -220.557)" fill="#0c6494"/>
      <path id="Path_86" data-name="Path 86" d="M99.062,339.906H59.641a1.953,1.953,0,0,0,0,3.906H99.062a1.953,1.953,0,0,0,0-3.906Z" transform="translate(-46.421 -257.933)" fill="#0c6494"/>
      <path id="Path_87" data-name="Path 87" d="M57.7,149.355a1.972,1.972,0,0,0,1.944,1.773H86.288a1.974,1.974,0,0,0,1.953-1.953v-25.24a1.953,1.953,0,0,0-1.953-1.953H59.641a1.953,1.953,0,0,0-1.953,1.953v25.24c0,.06,0,.121.009.18Zm6.846-2.133,8.421-7.977,8.421,7.977Zm19.791-21.334v18.747l-10.027-9.5a1.953,1.953,0,0,0-2.686,0l-10.027,9.5V125.887Z" transform="translate(-46.421 -82.571)" fill="#0c6494"/>
      <path id="Path_88" data-name="Path 88" d="M155.946,164.2a1.952,1.952,0,1,0,.883-2.469A1.967,1.967,0,0,0,155.946,164.2Z" transform="translate(-125.372 -114.372)" fill="#0c6494"/>
    </g>
  </g>
</svg>
