<svg xmlns="http://www.w3.org/2000/svg" width="100" height="100" viewBox="0 0 100 100">
  <g id="Group_9039" data-name="Group 9039" transform="translate(-413 -1089)">
    <rect id="Rectangle_2077" data-name="Rectangle 2077" width="100" height="100" transform="translate(413 1089)" fill="none"/>
    <g id="Online_Registration" transform="translate(411.915 1087)">
      <path id="Path_60" data-name="Path 60" d="M99.694,13.155A11.162,11.162,0,0,0,88.538,2H14.226A11.159,11.159,0,0,0,3.085,13.155V58.686a11.156,11.156,0,0,0,11.141,11.14H32.444l-2.3,6.7a3.079,3.079,0,0,0-3.5.079l-4.112,2.975a3.072,3.072,0,0,0-.691,4.3l12.186,16.841a3.084,3.084,0,0,0,4.3.69l4.115-2.963a3.086,3.086,0,0,0,1.174-3.266l1.795-.577a60.6,60.6,0,0,0,16.765-8.359A5.206,5.206,0,0,0,64.272,83.2a5.512,5.512,0,0,0-1.453-5.078,4.032,4.032,0,0,0,.563-2.062,6.093,6.093,0,0,0-2.25-4.156,4.268,4.268,0,0,0-.031-2.078H88.538a11.159,11.159,0,0,0,11.156-11.14V13.155ZM61.225,82.5a2.147,2.147,0,0,1-.859,1.2,57.07,57.07,0,0,1-15.89,7.922l-2.125.687-9.7-13.421,6.5-19.047a2.081,2.081,0,0,1,2.468-1.328,2.052,2.052,0,0,1,1.485,2.5l-2.11,8.25a1.147,1.147,0,0,0-.016.562,1.518,1.518,0,0,0,.657,1.125,1.551,1.551,0,0,0,1.781-.016L64.272,55.983a1.456,1.456,0,0,1,2.031.344,1.436,1.436,0,0,1-.359,2.031c-.156.111-18.8,13.325-17.5,12.406a1.539,1.539,0,0,0-.359,2.172,1.561,1.561,0,0,0,2.172.375l6.312-4.5c.82.519,1.777,1.575,1.516,2.36l-.015.031-6.922,4.922a1.563,1.563,0,0,0,1.813,2.547L59.1,74.3c1,1,1.141,1.593,1.156,1.828,0,.094,0,.422-.61.953a.125.125,0,0,0-.063.063v.016l-6.641,4.718a1.572,1.572,0,0,0-.359,2.188,1.547,1.547,0,0,0,2.172.359l5.8-4.125a2.375,2.375,0,0,1,.672,2.2ZM96.569,58.686A8.035,8.035,0,0,1,88.538,66.7H59.553l8.188-5.781A.619.619,0,0,0,67.9,60.8H76.85a3.838,3.838,0,0,0,3.828-3.844V52.265a3.834,3.834,0,0,0-3.828-3.828H64.163a3.838,3.838,0,0,0-3.844,3.828v2.7L45.085,65.889,46.131,61.8a5.19,5.19,0,0,0-9.937-2.969L33.506,66.7H14.226A8.022,8.022,0,0,1,6.21,58.686V13.155a8.025,8.025,0,0,1,8.016-8.031H88.538a8.038,8.038,0,0,1,8.031,8.031Z" transform="translate(0 0)" fill="#0c6494"/>
      <path id="Path_61" data-name="Path 61" d="M69.5,20.5H37.676a4.534,4.534,0,0,0-4.531,4.531v3.781a4.534,4.534,0,0,0,4.531,4.531H69.5a4.534,4.534,0,0,0,4.531-4.531V25.031A4.534,4.534,0,0,0,69.5,20.5Zm1.406,8.312A1.4,1.4,0,0,1,69.5,30.218H37.676a1.41,1.41,0,0,1-1.406-1.406V25.031a1.41,1.41,0,0,1,1.406-1.406H69.5a1.4,1.4,0,0,1,1.406,1.406Z" transform="translate(16.908 10.406)" fill="#0c6494"/>
      <path id="Path_62" data-name="Path 62" d="M69.5,9.44H37.676a4.534,4.534,0,0,0-4.531,4.531v3.781a4.534,4.534,0,0,0,4.531,4.531H69.5a4.534,4.534,0,0,0,4.531-4.531V13.971A4.534,4.534,0,0,0,69.5,9.44Zm1.406,8.312A1.41,1.41,0,0,1,69.5,19.158H37.676a1.42,1.42,0,0,1-1.406-1.406V13.971a1.41,1.41,0,0,1,1.406-1.406H69.5a1.4,1.4,0,0,1,1.406,1.406Z" transform="translate(16.908 4.185)" fill="#0c6494"/>
      <path id="Path_63" data-name="Path 63" d="M25.894,8.06A17.219,17.219,0,1,0,43.112,25.294,17.254,17.254,0,0,0,25.894,8.06Zm3.765,17.875a3.692,3.692,0,0,1-.187,1.172,3.979,3.979,0,0,1-7.578.124,3.6,3.6,0,0,1-.234-1.3V22.09h8v3.844Zm7.7,7.5a12.693,12.693,0,0,0-5-5.109,6.755,6.755,0,0,0,.422-2.39V22.012a7.125,7.125,0,1,0-14.25,0v3.922a7.006,7.006,0,0,0,.5,2.624,12.694,12.694,0,0,0-4.609,4.875,13.824,13.824,0,0,1-2.625-8.14,14.094,14.094,0,1,1,28.187,0,13.714,13.714,0,0,1-2.625,8.14Z" transform="translate(3.144 3.409)" fill="#0c6494"/>
    </g>
  </g>
</svg>
